<?xml version="1.0" standalone="no"?>
<!DOCTYPE svg PUBLIC "-//W3C//DTD SVG 20010904//EN"
 "http://www.w3.org/TR/2001/REC-SVG-20010904/DTD/svg10.dtd">
<svg version="1.0" xmlns="http://www.w3.org/2000/svg"
 width="300.000000pt" height="300.000000pt" viewBox="0 0 300.000000 300.000000"
 preserveAspectRatio="xMidYMid meet">
<metadata>
Created by potrace 1.14, written by Peter Selinger 2001-2017
</metadata>
<g transform="translate(0.000000,300.000000) scale(0.100000,-0.100000)"
fill="#000000" stroke="none">
<path d="M1345 2980 c-170 -19 -336 -67 -493 -141 -70 -33 -101 -52 -96 -60 5
-8 3 -9 -5 -5 -26 16 -233 -143 -347 -267 -81 -90 -135 -170 -213 -319 -72
-136 -113 -250 -144 -403 -28 -140 -30 -398 -3 -543 35 -193 118 -395 235
-572 77 -117 270 -309 389 -388 166 -110 356 -188 557 -229 125 -25 414 -25
538 0 747 150 1261 822 1196 1560 -51 589 -438 1081 -994 1266 -197 65 -264
76 -475 75 -200 0 -321 -18 -472 -70 -39 -13 -73 -22 -76 -20 -9 10 200 68
312 88 103 17 147 19 296 15 250 -8 401 -46 625 -157 223 -111 367 -235 563
-485 l24 -30 -19 33 c-69 117 -224 277 -375 384 -280 201 -682 306 -1023 268z
m274 -41 c499 -46 930 -333 1161 -771 62 -118 95 -206 125 -330 l23 -98 -517
0 -516 0 -24 36 c-36 52 -105 109 -172 143 -187 93 -405 50 -552 -109 l-65
-70 -506 0 c-278 0 -506 2 -506 4 0 19 36 158 61 232 67 203 181 386 344 550
214 213 480 350 778 399 161 26 216 28 366 14z m-699 -89 c-8 -5 -19 -10 -25
-10 -5 0 -3 5 5 10 8 5 20 10 25 10 6 0 3 -5 -5 -10z m701 -951 c90 -30 111
-42 171 -102 67 -65 128 -186 135 -266 18 -200 -122 -394 -322 -447 -96 -26
-209 -13 -302 34 -48 25 -57 27 -47 11 15 -26 -44 18 -92 66 -49 51 -104 148
-104 183 0 9 11 -9 24 -40 13 -31 37 -74 54 -95 42 -53 101 -108 108 -101 3 3
-10 18 -29 33 -85 64 -147 201 -147 324 0 110 27 182 104 271 110 130 288 181
447 129z m1039 -434 l0 -205 -150 0 -150 0 0 205 0 205 150 0 150 0 0 -205z
m-2101 54 c11 -29 21 -67 21 -85 0 -36 15 -53 33 -35 7 7 14 5 23 -7 11 -14 9
-21 -8 -39 -30 -32 -58 -30 -58 2 0 22 -3 24 -19 15 -11 -5 -31 -10 -46 -10
-14 0 -24 -4 -20 -9 10 -17 -14 -22 -55 -11 -36 10 -40 14 -34 33 3 12 13 29
21 37 13 13 17 12 38 -12 24 -28 45 -36 45 -19 0 5 -12 18 -27 29 l-28 20 19
49 c10 26 21 58 23 71 4 15 13 22 28 22 17 0 27 -11 44 -51z m498 -111 c-3 -8
-6 -5 -6 6 -1 11 2 17 5 13 3 -3 4 -12 1 -19z m279 -326 c-5 -4 -66 26 -66 33
0 3 16 -3 35 -12 19 -9 33 -18 31 -21z m466 -352 c5 0 7 -12 4 -27 -13 -60
-15 -137 -6 -148 8 -9 5 -14 -10 -18 -30 -8 -32 5 -19 93 9 66 9 83 -2 97 -12
15 -12 16 4 10 10 -4 23 -7 29 -7z m275 -58 c-5 -34 -7 -65 -4 -68 12 -12 79
38 74 55 -3 12 3 16 27 14 17 -1 40 -2 52 -2 18 -1 20 -5 14 -56 -4 -32 -2
-59 4 -65 7 -7 6 -10 -1 -10 -6 0 -19 -3 -28 -7 -16 -5 -17 0 -13 56 5 74 -6
85 -51 49 -38 -29 -38 -42 -1 -70 36 -26 38 -38 7 -38 -14 0 -32 12 -45 30
-13 17 -27 30 -32 30 -17 0 -11 -39 8 -49 14 -8 11 -10 -15 -9 -33 1 -38 8
-33 53 1 17 -4 15 -29 -12 -16 -18 -35 -33 -40 -33 -6 0 -2 9 9 20 11 11 20
31 20 45 0 14 -9 34 -20 45 -18 18 -18 20 -3 20 9 0 27 -9 39 -20 l21 -21 7
41 c3 23 4 45 1 50 -4 6 30 19 41 15 1 0 -3 -28 -9 -63z m-1281 15 c-14 -43
-26 -58 -26 -33 0 19 29 80 35 74 2 -2 -2 -20 -9 -41z m1454 16 c-18 -7 -35
-11 -37 -9 -7 7 51 33 61 28 5 -3 -6 -11 -24 -19z m-1361 -47 c-6 -25 -15 -46
-20 -46 -11 0 -11 0 2 41 6 19 13 40 15 48 3 8 7 12 10 9 3 -3 0 -26 -7 -52z
m98 40 c-3 -8 -9 -31 -13 -50 -3 -20 -11 -36 -16 -36 -6 0 -8 10 -4 23 4 12 9
34 12 50 4 15 11 27 16 27 6 0 8 -6 5 -14z m88 -32 c-14 -48 -25 -67 -25 -44
0 23 23 90 31 90 4 0 2 -21 -6 -46z m55 32 c0 -7 -7 -19 -16 -27 -10 -8 -13
-21 -9 -36 3 -13 1 -23 -5 -23 -13 0 -13 47 0 55 6 3 10 15 10 26 0 10 5 19
10 19 6 0 10 -6 10 -14z m75 -3 c-3 -10 -9 -30 -12 -46 -5 -24 -23 -49 -23
-32 0 24 24 95 32 95 6 0 7 -8 3 -17z m45 3 c0 -8 -4 -18 -10 -21 -5 -3 -10 3
-10 14 0 12 5 21 10 21 6 0 10 -6 10 -14z m96 -2 c-3 -9 -6 -31 -6 -50 0 -19
-4 -34 -9 -34 -5 0 -8 23 -8 50 1 35 5 50 15 50 9 0 12 -6 8 -16z m-576 1 c0
-2 -15 -12 -32 -20 l-33 -16 25 20 c24 20 40 26 40 16z m454 -57 c4 -17 2 -28
-4 -28 -5 0 -10 14 -10 32 0 36 4 35 14 -4z m662 7 c-22 -34 -20 -60 7 -86
l22 -21 -32 7 c-21 4 -33 3 -33 -4 0 -6 -7 -11 -17 -11 -15 0 -15 2 0 18 10
11 13 27 10 45 -4 21 1 35 17 53 30 31 47 31 26 -1z m-1106 -23 c0 -5 -9 -17
-21 -28 -21 -19 -21 -19 -8 9 12 26 29 37 29 19z m1175 -11 c7 -12 -12 -24
-25 -16 -11 7 -4 25 10 25 5 0 11 -4 15 -9z"/>
<path d="M2430 2506 c0 -17 38 -28 46 -14 7 11 -13 28 -33 28 -7 0 -13 -6 -13
-14z"/>
<path d="M546 2478 c-11 -44 -8 -48 37 -46 l42 3 3 -53 c4 -74 26 -63 29 14 1
32 5 69 8 82 5 21 3 22 -54 22 -52 0 -59 -2 -65 -22z"/>
<path d="M679 2468 c-1 -18 -1 -61 0 -96 1 -62 1 -62 -24 -56 -25 6 -26 5 -22
-38 5 -59 12 -68 52 -68 40 0 44 6 51 63 5 35 2 46 -10 50 -9 4 -16 2 -16 -3
0 -6 -3 -10 -7 -10 -5 0 -7 43 -5 95 2 63 0 95 -7 95 -6 0 -12 -15 -12 -32z
m41 -212 c0 -16 -3 -26 -7 -23 -3 4 -12 2 -20 -4 -10 -9 -13 -8 -13 1 0 7 -6
10 -14 7 -18 -7 -15 35 5 55 20 22 49 1 49 -36z"/>
<path d="M715 2420 c2 -44 7 -80 11 -80 5 0 10 13 11 28 0 15 2 35 2 45 1 13
10 17 44 17 l43 0 -4 35 -4 35 -53 0 -53 0 3 -80z"/>
<path d="M880 2455 c0 -26 5 -45 11 -45 7 0 9 10 6 25 -2 14 -2 23 1 20 8 -8
32 16 32 31 0 8 -10 14 -25 14 -23 0 -25 -4 -25 -45z"/>
<path d="M964 2475 c-4 -14 -5 -27 -3 -28 2 -2 32 -1 67 1 58 4 62 5 62 28 0
23 -3 24 -60 24 -56 0 -60 -2 -66 -25z"/>
<path d="M1120 2490 c0 -5 5 -10 10 -10 6 0 10 -8 10 -17 0 -14 2 -15 9 -5 5
9 10 -1 14 -29 3 -24 1 -49 -4 -55 -5 -7 -9 -16 -8 -20 4 -22 -2 -33 -15 -28
-8 3 -17 0 -22 -7 -4 -7 -2 -15 4 -17 18 -6 14 -20 -8 -27 -11 -4 -18 -11 -15
-16 4 -5 1 -17 -4 -26 -10 -17 -11 -16 -12 2 -2 26 -2 27 6 47 5 13 0 21 -19
29 -14 7 -23 16 -20 20 3 5 -7 9 -21 9 -15 0 -24 -4 -20 -10 3 -6 -5 -14 -19
-20 -22 -8 -25 -14 -21 -42 3 -18 2 -26 -1 -18 -4 8 -16 21 -27 29 -14 10 -16
16 -7 21 15 9 4 30 -16 30 -8 0 -14 9 -14 20 0 11 -4 20 -10 20 -6 0 -10 -45
-10 -115 l0 -115 61 0 60 0 -3 77 c-3 74 -2 78 19 79 13 1 19 -4 17 -11 -3 -7
2 -19 10 -28 8 -8 12 -17 9 -20 -6 -7 34 -124 50 -144 11 -15 117 -18 117 -4
0 5 -18 51 -39 102 -39 92 -39 94 -20 108 27 19 28 160 1 184 -21 19 -42 22
-42 7z"/>
<path d="M1265 2320 l0 -180 58 0 57 0 0 49 c0 26 -5 62 -11 80 -9 24 -8 35 2
47 11 14 10 15 -11 12 -21 -2 -25 -8 -23 -33 2 -25 1 -27 -6 -10 -5 11 -10 30
-10 43 -1 18 4 22 31 22 23 0 29 3 21 11 -6 6 -23 9 -39 7 -27 -3 -29 -6 -28
-42 2 -38 1 -39 -12 -15 -7 13 -13 36 -14 52 0 26 2 27 50 27 l50 0 0 55 0 55
-57 0 -58 0 0 -180z"/>
<path d="M1458 2460 c2 -21 9 -38 15 -37 18 3 20 -35 3 -45 -9 -5 -16 -18 -16
-28 0 -16 6 -19 38 -17 34 2 37 0 40 -25 4 -35 19 -36 34 -3 9 19 8 29 -6 50
-9 14 -21 25 -26 25 -6 0 -10 12 -10 28 1 24 2 25 14 10 17 -24 26 -23 26 3 0
17 5 20 38 17 32 -3 37 -7 40 -30 3 -25 7 -28 43 -28 35 0 39 -2 39 -26 0 -22
2 -25 15 -14 20 17 20 108 -1 138 -14 21 -22 22 -152 22 l-138 0 4 -40z"/>
<path d="M1830 2485 c0 -8 15 -24 33 -35 39 -24 47 -25 47 -5 0 16 16 21 22 6
2 -4 36 -11 76 -13 75 -6 77 -4 66 40 -6 21 -10 22 -125 22 -100 0 -119 -2
-119 -15z"/>
<path d="M2155 2469 c-12 -22 -15 -51 -12 -110 4 -84 9 -93 55 -105 32 -9 38
2 16 28 -14 17 -11 16 14 -5 41 -33 53 -34 91 -1 18 15 29 19 25 11 -3 -9 -12
-18 -20 -21 -8 -3 -14 -19 -14 -38 l0 -32 32 33 c18 18 43 37 55 42 18 7 23
15 21 40 -1 17 -6 33 -10 35 -5 3 -6 10 -3 15 7 10 -42 35 -51 26 -4 -4 -3
-12 2 -20 5 -7 2 -5 -8 5 -9 11 -30 18 -51 18 -42 0 -65 21 -42 40 10 8 38 11
85 8 l70 -4 0 33 0 33 -120 -1 -120 0 -15 -30z m155 -154 c-15 -18 -51 -20
-68 -3 -20 20 -14 27 31 30 45 3 56 -4 37 -27z m67 -1 c-3 -3 -12 -4 -19 -1
-8 3 -5 6 6 6 11 1 17 -2 13 -5z"/>
<path d="M955 2400 c-8 -13 4 -50 16 -50 5 0 9 14 9 30 0 30 -13 40 -25 20z"/>
<path d="M1086 2391 c-4 -7 -5 -15 -2 -18 9 -9 19 4 14 18 -4 11 -6 11 -12 0z"/>
<path d="M1830 2391 c0 -6 4 -12 10 -16 5 -3 7 -12 4 -19 -3 -7 2 -16 10 -19
9 -4 16 -16 16 -27 0 -17 -4 -20 -20 -15 -19 6 -20 2 -20 -74 l0 -81 119 0
c115 0 119 1 125 23 11 42 8 43 -54 39 -71 -5 -100 12 -92 53 3 20 -1 27 -22
35 -16 6 -24 15 -20 21 4 8 9 8 17 0 17 -17 26 -13 20 8 -3 10 0 22 6 25 16
10 13 26 -4 26 -9 0 -12 6 -9 15 7 17 -11 21 -21 5 -4 -7 -12 -7 -25 0 -23 13
-40 13 -40 1z"/>
<path d="M1605 2350 c-4 -6 12 -10 39 -10 44 0 46 -1 45 -27 0 -27 0 -28 -10
-5 -7 19 -15 23 -41 20 -39 -4 -44 -22 -7 -26 22 -3 25 -7 22 -30 -4 -26 -4
-27 12 -7 18 21 17 16 -4 -27 -8 -15 -21 -29 -30 -30 -30 -7 -61 4 -61 21 0
13 -11 16 -55 16 l-55 0 0 -37 c0 -20 -3 -43 -6 -52 -5 -14 10 -16 133 -16
168 0 173 3 173 96 0 55 -11 84 -32 84 -4 0 -8 -6 -8 -14 0 -8 -4 -17 -9 -20
-5 -4 -7 11 -4 34 l6 40 -51 0 c-28 0 -54 -4 -57 -10z"/>
<path d="M1997 2341 c-6 -24 21 -51 51 -51 18 0 22 6 22 35 0 33 -2 35 -34 35
-25 0 -35 -5 -39 -19z"/>
<path d="M1065 2330 c-3 -5 -1 -10 4 -10 6 0 11 5 11 10 0 6 -2 10 -4 10 -3 0
-8 -4 -11 -10z"/>
<path d="M1460 2300 c0 -19 20 -27 33 -13 8 7 -11 33 -24 33 -5 0 -9 -9 -9
-20z"/>
<path d="M2351 2215 c-52 -56 -53 -75 -6 -75 35 0 35 0 35 45 0 38 3 45 20 45
11 0 20 7 20 15 0 27 -27 16 -69 -30z"/>
<path d="M2148 2173 c4 -33 4 -33 58 -33 36 0 54 4 54 13 0 9 2 9 9 -1 6 -10
12 -7 25 13 10 15 16 28 14 30 -2 1 -39 5 -83 7 l-81 4 4 -33z"/>
<path d="M626 2184 c-15 -38 -8 -44 54 -44 l60 0 0 30 c0 29 -13 40 -25 20 -3
-5 -12 -7 -20 -3 -9 3 -15 -1 -15 -8 -1 -10 -5 -9 -14 4 -16 21 -32 22 -40 1z"/>
<path d="M1435 1894 c-50 -13 -115 -36 -119 -43 -3 -4 28 1 67 12 93 24 190
18 276 -17 40 -16 59 -20 51 -11 -31 37 -210 75 -275 59z"/>
<path d="M1415 1661 c-16 -10 -39 -29 -50 -41 l-20 -23 20 8 c82 32 103 37
160 31 39 -4 72 -15 98 -32 30 -20 36 -21 29 -7 -13 23 -50 57 -79 72 -35 18
-124 14 -158 -8z"/>
<path d="M1384 1325 c55 -44 139 -51 204 -16 35 19 26 20 -25 5 -56 -17 -113
-11 -161 17 -45 26 -53 23 -18 -6z"/>
<path d="M2791 2235 c18 -33 37 -64 42 -70 14 -15 -39 87 -58 110 -9 11 -1 -7
16 -40z"/>
</g>
</svg>
